<?xml version="1.0" encoding="iso-8859-1"?>
<!-- Generator: Adobe Illustrator 19.0.0, SVG Export Plug-In . SVG Version: 6.00 Build 0)  -->
<svg version="1.1" id="Capa_1" xmlns="http://www.w3.org/2000/svg" xmlns:xlink="http://www.w3.org/1999/xlink" x="0px" y="0px"
	 viewBox="0 0 512 512" style="enable-background:new 0 0 512 512;" xml:space="preserve">
<path style="fill:#FFC107;" d="M256,0C114.615,0,0,114.615,0,256s114.615,256,256,256s256-114.615,256-256
	C511.847,114.678,397.322,0.153,256,0z"/>
<path style="fill:#F44336;" d="M256,448c-84.501,0-151.659-63.595-167.104-158.272c-0.954-5.813,2.985-11.299,8.798-12.254
	c0.568-0.093,1.144-0.14,1.72-0.141h313.173c5.891,0.005,10.663,4.784,10.658,10.675c0,0.576-0.048,1.151-0.141,1.72
	C407.659,384.405,340.501,448,256,448z"/>
<g>
	<path style="fill:#283593;" d="M192,128c-12.352,0-21.333,13.461-21.333,32s8.981,32,21.333,32c12.352,0,21.333-13.461,21.333-32
		S204.352,128,192,128z"/>
	<path style="fill:#283593;" d="M320,128c-12.352,0-21.333,13.461-21.333,32s8.981,32,21.333,32c12.352,0,21.333-13.461,21.333-32
		S332.352,128,320,128z"/>
</g>
<path style="fill:#FAFAFA;" d="M412.587,298.667H99.413c-5.179-0.006-9.605-3.73-10.496-8.832
	c-2.471-14.703-3.67-29.592-3.584-44.501c0-5.891,4.776-10.667,10.667-10.667h320c5.891,0,10.667,4.776,10.667,10.667
	c0.086,14.909-1.113,29.798-3.584,44.501C422.192,294.936,417.765,298.661,412.587,298.667z"/>
<path d="M256,512C114.615,512,0,397.385,0,256S114.615,0,256,0s256,114.615,256,256C511.847,397.322,397.322,511.847,256,512z
	 M256,21.333C126.397,21.333,21.333,126.397,21.333,256S126.397,490.667,256,490.667S490.667,385.603,490.667,256
	C490.526,126.456,385.544,21.474,256,21.333z"/>
<path d="M256,448c-98.901,0-170.667-85.333-170.667-202.667c0-5.891,4.776-10.667,10.667-10.667h320
	c5.891,0,10.667,4.776,10.667,10.667C426.667,362.667,354.901,448,256,448z M106.88,256
	c3.947,101.035,64.149,170.667,149.12,170.667S401.173,357.035,405.12,256H106.88z"/>
<path d="M405.333,298.667H106.667C100.776,298.667,96,293.891,96,288c0-5.891,4.776-10.667,10.667-10.667h298.667
	c5.891,0,10.667,4.776,10.667,10.667C416,293.891,411.224,298.667,405.333,298.667z"/>
<path d="M192,192c-12.373,0-21.333-13.461-21.333-32s8.96-32,21.333-32c12.373,0,21.333,13.461,21.333,32S204.373,192,192,192z"/>
<path d="M320,192c-12.373,0-21.333-13.461-21.333-32s8.96-32,21.333-32c12.373,0,21.333,13.461,21.333,32S332.373,192,320,192z"/>
<g>
</g>
<g>
</g>
<g>
</g>
<g>
</g>
<g>
</g>
<g>
</g>
<g>
</g>
<g>
</g>
<g>
</g>
<g>
</g>
<g>
</g>
<g>
</g>
<g>
</g>
<g>
</g>
<g>
</g>
</svg>
